<svg width="1200" height="520" viewBox="0 0 1200 520" fill="none" xmlns="http://www.w3.org/2000/svg">
  <rect width="1200" height="520" rx="28" fill="#F9FBFF"/>
  <rect x="12" y="12" width="1176" height="496" rx="24" stroke="#D9E4F3" stroke-width="2"/>

  <defs>
    <filter id="shadow" x="-20%" y="-20%" width="140%" height="140%">
      <feDropShadow dx="0" dy="10" stdDeviation="14" flood-color="#9DB7E7" flood-opacity="0.18"/>
    </filter>
    <filter id="soft" x="-20%" y="-20%" width="140%" height="140%">
      <feDropShadow dx="0" dy="6" stdDeviation="10" flood-color="#A8BEE0" flood-opacity="0.14"/>
    </filter>
    <path id="groundPath" d="M128 348C244 348 282 380 398 380C515 380 548 316 664 316C798 316 836 366 978 366C1044 366 1093 343 1130 322"/>
    <path id="airPath" d="M170 180C258 118 348 116 443 154C533 190 623 190 708 146C802 98 913 94 1032 160"/>
  </defs>

  <g opacity="0.55">
    <path d="M72 94H1128" stroke="#EAF0F9" stroke-width="2"/>
    <path d="M72 144H1128" stroke="#EAF0F9" stroke-width="2"/>
    <path d="M72 194H1128" stroke="#EAF0F9" stroke-width="2"/>
    <path d="M72 244H1128" stroke="#EAF0F9" stroke-width="2"/>
    <path d="M72 294H1128" stroke="#EAF0F9" stroke-width="2"/>
    <path d="M72 344H1128" stroke="#EAF0F9" stroke-width="2"/>
    <path d="M72 394H1128" stroke="#EAF0F9" stroke-width="2"/>
    <path d="M72 444H1128" stroke="#EAF0F9" stroke-width="2"/>
    <path d="M170 56V464" stroke="#EEF3FA" stroke-width="2"/>
    <path d="M360 56V464" stroke="#EEF3FA" stroke-width="2"/>
    <path d="M550 56V464" stroke="#EEF3FA" stroke-width="2"/>
    <path d="M740 56V464" stroke="#EEF3FA" stroke-width="2"/>
    <path d="M930 56V464" stroke="#EEF3FA" stroke-width="2"/>
  </g>

  <text x="84" y="80" fill="#9AAECC" font-size="17" font-family="Arial, sans-serif" font-weight="700" letter-spacing="4">WHITEBOARD COURIER LOOP</text>
  <text x="84" y="124" fill="#16243E" font-size="38" font-family="Arial, sans-serif" font-weight="700">Warehouse to delivery in one loop</text>
  <text x="84" y="156" fill="#6B7E9A" font-size="20" font-family="Arial, sans-serif">Short visual showing pickup, air transit, sorting and final delivery.</text>

  <g opacity="0.75">
    <path d="M172 186C195 161 242 161 265 186" stroke="#D7E4F5" stroke-width="8" stroke-linecap="round"/>
    <path d="M262 186C276 172 304 172 318 186" stroke="#D7E4F5" stroke-width="8" stroke-linecap="round"/>
    <path d="M815 122C844 95 902 95 930 122" stroke="#D7E4F5" stroke-width="8" stroke-linecap="round"/>
    <path d="M928 122C943 109 973 109 988 122" stroke="#D7E4F5" stroke-width="8" stroke-linecap="round"/>
  </g>

  <g opacity="0.96">
    <path d="M128 348C244 348 282 380 398 380C515 380 548 316 664 316C798 316 836 366 978 366C1044 366 1093 343 1130 322" stroke="#DCE7F5" stroke-width="18" stroke-linecap="round"/>
    <path d="M128 348C244 348 282 380 398 380C515 380 548 316 664 316C798 316 836 366 978 366C1044 366 1093 343 1130 322" stroke="#7EA7F7" stroke-width="7" stroke-linecap="round" stroke-dasharray="2 18"/>
    <path d="M128 348C244 348 282 380 398 380C515 380 548 316 664 316C798 316 836 366 978 366C1044 366 1093 343 1130 322" stroke="#2552D9" stroke-width="4" stroke-linecap="round" stroke-dasharray="1 20">
      <animate attributeName="stroke-dashoffset" values="0;-220" dur="5s" repeatCount="indefinite"/>
    </path>
  </g>

  <g opacity="0.94">
    <path d="M170 180C258 118 348 116 443 154C533 190 623 190 708 146C802 98 913 94 1032 160" stroke="#E1F0EC" stroke-width="12" stroke-linecap="round" stroke-dasharray="12 18"/>
    <path d="M170 180C258 118 348 116 443 154C533 190 623 190 708 146C802 98 913 94 1032 160" stroke="#0F766E" stroke-width="4" stroke-linecap="round" stroke-dasharray="2 16">
      <animate attributeName="stroke-dashoffset" values="0;-160" dur="4.8s" repeatCount="indefinite"/>
    </path>
  </g>

  <g filter="url(#shadow)">
    <rect x="74" y="276" width="208" height="132" rx="24" fill="#FFFFFF"/>
    <rect x="74" y="276" width="208" height="132" rx="24" stroke="#D8E2F0" stroke-width="2"/>
    <rect x="104" y="304" width="44" height="44" rx="14" fill="#EEF4FF"/>
    <path d="M113 338V321L126 313L139 321V338" stroke="#2552D9" stroke-width="3" stroke-linejoin="round"/>
    <path d="M121 338V327H131V338" stroke="#2552D9" stroke-width="3" stroke-linejoin="round"/>
    <text x="164" y="322" fill="#8BA0BF" font-size="18" font-family="Arial, sans-serif" font-weight="700" letter-spacing="3">WAREHOUSE</text>
    <text x="164" y="358" fill="#16243E" font-size="32" font-family="Arial, sans-serif" font-weight="700">Pickup Hub</text>
    <text x="164" y="386" fill="#6B7E9A" font-size="21" font-family="Arial, sans-serif">Cargo intake point</text>
  </g>

  <g filter="url(#shadow)">
    <rect x="494" y="244" width="212" height="124" rx="24" fill="#FFFFFF"/>
    <rect x="494" y="244" width="212" height="124" rx="24" stroke="#D8E2F0" stroke-width="2"/>
    <rect x="524" y="272" width="44" height="44" rx="14" fill="#ECFDF5"/>
    <rect x="534" y="283" width="24" height="18" rx="4" stroke="#0F766E" stroke-width="3"/>
    <path d="M534 291H558" stroke="#0F766E" stroke-width="3"/>
    <text x="584" y="290" fill="#8BA0BF" font-size="18" font-family="Arial, sans-serif" font-weight="700" letter-spacing="3">SORTING</text>
    <text x="584" y="326" fill="#16243E" font-size="32" font-family="Arial, sans-serif" font-weight="700">Ops Scan</text>
    <text x="584" y="354" fill="#6B7E9A" font-size="21" font-family="Arial, sans-serif">Verified and dispatched</text>
  </g>

  <g filter="url(#shadow)">
    <rect x="918" y="270" width="208" height="132" rx="24" fill="#FFFFFF"/>
    <rect x="918" y="270" width="208" height="132" rx="24" stroke="#D8E2F0" stroke-width="2"/>
    <rect x="948" y="298" width="44" height="44" rx="14" fill="#FFF7ED"/>
    <path d="M970 309C961 309 954 316 954 325C954 335 970 347 970 347C970 347 986 335 986 325C986 316 979 309 970 309Z" stroke="#EA580C" stroke-width="3" stroke-linejoin="round"/>
    <circle cx="970" cy="325" r="5" stroke="#EA580C" stroke-width="3"/>
    <text x="1008" y="316" fill="#8BA0BF" font-size="18" font-family="Arial, sans-serif" font-weight="700" letter-spacing="3">DELIVERY</text>
    <text x="1008" y="352" fill="#16243E" font-size="32" font-family="Arial, sans-serif" font-weight="700">Final Stop</text>
    <text x="1008" y="380" fill="#6B7E9A" font-size="21" font-family="Arial, sans-serif">Customer doorstep</text>
  </g>

  <g filter="url(#soft)">
    <circle cx="128" cy="348" r="15" fill="#FFFFFF" stroke="#2552D9" stroke-width="6"/>
    <circle cx="600" cy="316" r="15" fill="#FFFFFF" stroke="#0F766E" stroke-width="6"/>
    <circle cx="1130" cy="322" r="15" fill="#FFFFFF" stroke="#EA580C" stroke-width="6"/>
  </g>

  <g>
    <circle cx="128" cy="348" r="34" fill="#2552D9" opacity="0.08">
      <animate attributeName="r" values="28;42;28" dur="2.4s" repeatCount="indefinite"/>
      <animate attributeName="opacity" values="0.16;0.04;0.16" dur="2.4s" repeatCount="indefinite"/>
    </circle>
    <circle cx="600" cy="316" r="32" fill="#0F766E" opacity="0.08">
      <animate attributeName="r" values="26;38;26" dur="2.4s" begin="0.8s" repeatCount="indefinite"/>
      <animate attributeName="opacity" values="0.16;0.04;0.16" dur="2.4s" begin="0.8s" repeatCount="indefinite"/>
    </circle>
    <circle cx="1130" cy="322" r="34" fill="#EA580C" opacity="0.08">
      <animate attributeName="r" values="28;42;28" dur="2.4s" begin="1.6s" repeatCount="indefinite"/>
      <animate attributeName="opacity" values="0.16;0.04;0.16" dur="2.4s" begin="1.6s" repeatCount="indefinite"/>
    </circle>
  </g>

  <g>
    <g>
      <rect x="-20" y="-17" width="82" height="36" rx="12" fill="#2552D9"/>
      <rect x="34" y="-31" width="34" height="26" rx="7" fill="#2552D9"/>
      <rect x="44" y="-23" width="12" height="9" rx="2" fill="#DBEAFE"/>
      <rect x="-8" y="-9" width="24" height="14" rx="4" fill="#DBEAFE"/>
      <circle cx="0" cy="24" r="11" fill="#153FB7"/>
      <circle cx="48" cy="24" r="11" fill="#153FB7"/>
      <circle cx="0" cy="24" r="4.5" fill="#F8FBFF"/>
      <circle cx="48" cy="24" r="4.5" fill="#F8FBFF"/>
      <animateMotion dur="6.6s" rotate="auto" repeatCount="indefinite">
        <mpath href="#groundPath"/>
      </animateMotion>
    </g>
  </g>

  <g>
    <g>
      <path d="M0 0L34 10L0 18L8 9L0 0Z" fill="#0F766E"/>
      <path d="M6 9H-34" stroke="#0F766E" stroke-width="7" stroke-linecap="round"/>
      <path d="M-14 9L-26 1" stroke="#0F766E" stroke-width="5" stroke-linecap="round"/>
      <path d="M-14 9L-26 17" stroke="#0F766E" stroke-width="5" stroke-linecap="round"/>
      <animateMotion dur="6.6s" begin="0.8s" rotate="auto" repeatCount="indefinite">
        <mpath href="#airPath"/>
      </animateMotion>
    </g>
  </g>

  <g filter="url(#soft)">
    <rect x="584" y="212" width="34" height="24" rx="7" fill="#FFFFFF" stroke="#D8E2F0" stroke-width="2"/>
    <rect x="596" y="202" width="10" height="10" rx="3" fill="#EEF4FF"/>
    <animateTransform attributeName="transform" type="translate" values="0 0; 0 -10; 0 0" dur="2.1s" repeatCount="indefinite"/>
  </g>

  <text x="76" y="470" fill="#9AAECC" font-size="15" font-family="Arial, sans-serif" font-weight="700" letter-spacing="3">LIVE LOOP</text>
  <text x="196" y="470" fill="#6B7E9A" font-size="18" font-family="Arial, sans-serif">Pickup → Air transit → Sorting → Delivery</text>
</svg>
